<svg width="193" height="87" viewBox="0 0 193 87" fill="none" xmlns="http://www.w3.org/2000/svg">
<path d="M40.5287 63.3535C42.0955 64.7452 43.4364 66.2701 44.553 67.9266C42.2245 69.7941 39.5238 71.2136 36.4472 72.1798C32.0258 73.5472 27.0866 73.7539 21.6315 72.7999C16.199 71.8497 11.635 69.9811 7.94034 67.1945C5.66568 65.4633 3.78854 63.4969 2.30726 61.299C4.04511 59.9051 5.99114 58.7618 8.14546 57.8697C8.65738 58.3242 9.19099 58.7672 9.751 59.1934C13.4459 61.9803 18.0102 63.8488 23.4432 64.799C28.8982 65.753 33.8365 65.5461 38.2578 64.1787C39.039 63.9334 39.7957 63.6569 40.5287 63.3535Z" fill="#1E1E1E"/>
<path d="M46.3741 29.9524C46.3742 31.0172 40.0832 34.9395 30.2748 34.9406C20.4664 34.9416 12.3487 31.0208 12.3486 29.9559C12.3485 28.8911 20.4654 25.301 30.2738 25.3C40.0822 25.299 46.374 28.8875 46.3741 29.9524Z" fill="#FFA100"/>
<path d="M65.0305 86.5227V57.6333H75.6009C77.6493 57.6333 79.3452 57.9718 80.6888 58.6489C82.0325 59.3166 83.0378 60.2241 83.7049 61.3714C84.3721 62.5093 84.7056 63.793 84.7056 65.2224C84.7056 66.4261 84.4848 67.4418 84.0432 68.2693C83.6016 69.0875 83.0096 69.7458 82.2674 70.2442C81.5345 70.7332 80.7264 71.0906 79.8432 71.3163V71.5984C80.8016 71.6454 81.7365 71.9558 82.6479 72.5294C83.5687 73.0936 84.3298 73.8977 84.9311 74.9416C85.5325 75.9854 85.8331 77.255 85.8331 78.7502C85.8331 80.2267 85.4855 81.5526 84.7902 82.7282C84.1043 83.8943 83.0425 84.8206 81.6049 85.5071C80.1674 86.1842 78.3305 86.5227 76.0942 86.5227H65.0305ZM69.3855 82.7846H75.6714C77.7573 82.7846 79.2513 82.3802 80.1533 81.5715C81.0553 80.7627 81.5063 79.7518 81.5063 78.5386C81.5063 77.6264 81.2761 76.7895 80.8157 76.0277C80.3553 75.266 79.6976 74.6594 78.8425 74.208C77.9969 73.7566 76.9915 73.5309 75.8264 73.5309H69.3855V82.7846ZM69.3855 70.1314H75.2204C76.1976 70.1314 77.0761 69.9433 77.856 69.5671C78.6452 69.1909 79.2701 68.6643 79.7305 67.9872C80.2003 67.3007 80.4352 66.492 80.4352 65.561C80.4352 64.3666 80.017 63.3651 79.1808 62.5564C78.3446 61.7476 77.062 61.3432 75.3332 61.3432H69.3855V70.1314Z" fill="#1E1E1E"/>
<path d="M100.387 86.96C98.2545 86.96 96.4175 86.5039 94.8766 85.5917C93.3451 84.6701 92.1612 83.377 91.3249 81.7125C90.4981 80.0386 90.0847 78.0778 90.0847 75.8302C90.0847 73.6109 90.4981 71.6548 91.3249 69.9621C92.1612 68.2693 93.3263 66.9481 94.8202 65.9983C96.3236 65.0484 98.0806 64.5735 100.091 64.5735C101.313 64.5735 102.497 64.7757 103.643 65.1801C104.789 65.5845 105.818 66.2192 106.73 67.0844C107.641 67.9496 108.36 69.0734 108.886 70.4558C109.412 71.8288 109.675 73.498 109.675 75.4635V76.9587H92.4666V73.799H105.546C105.546 72.6893 105.32 71.7065 104.869 70.8508C104.418 69.9856 103.784 69.3038 102.967 68.8054C102.158 68.307 101.209 68.0578 100.12 68.0578C98.9357 68.0578 97.9021 68.3493 97.0189 68.9323C96.1451 69.506 95.4686 70.2583 94.9894 71.1893C94.5196 72.1109 94.2847 73.1125 94.2847 74.1939V76.6625C94.2847 78.1107 94.5384 79.3427 95.0457 80.3583C95.5625 81.374 96.2813 82.1498 97.2021 82.6858C98.1229 83.2125 99.1987 83.4758 100.43 83.4758C101.228 83.4758 101.956 83.3629 102.614 83.1372C103.272 82.9021 103.84 82.5542 104.32 82.0934C104.799 81.6326 105.165 81.0636 105.419 80.3865L109.407 81.1059C109.088 82.2815 108.515 83.3112 107.688 84.1952C106.871 85.0698 105.842 85.7516 104.601 86.2406C103.371 86.7202 101.966 86.96 100.387 86.96Z" fill="#1E1E1E"/>
<path d="M121.048 87.0023C119.676 87.0023 118.436 86.7484 117.327 86.2406C116.218 85.7234 115.34 84.9757 114.691 83.9977C114.052 83.0197 113.733 81.8207 113.733 80.4006C113.733 79.1781 113.968 78.1719 114.438 77.3819C114.907 76.592 115.542 75.9666 116.34 75.5058C117.139 75.045 118.032 74.6971 119.018 74.4619C120.005 74.2268 121.01 74.0482 122.034 73.9259C123.331 73.7754 124.383 73.6532 125.191 73.5592C125.999 73.4557 126.587 73.2911 126.953 73.0654C127.32 72.8397 127.503 72.473 127.503 71.9652V71.8664C127.503 70.6345 127.155 69.68 126.46 69.0029C125.774 68.3258 124.75 67.9872 123.387 67.9872C121.969 67.9872 120.85 68.3023 120.033 68.9323C119.225 69.553 118.666 70.2442 118.356 71.0059L114.395 70.1031C114.865 68.7866 115.551 67.7239 116.453 66.9152C117.365 66.097 118.412 65.5045 119.596 65.1378C120.78 64.7616 122.025 64.5735 123.331 64.5735C124.195 64.5735 125.111 64.677 126.079 64.8839C127.056 65.0814 127.968 65.4481 128.813 65.9841C129.668 66.5202 130.368 67.2866 130.913 68.2834C131.458 69.2709 131.731 70.5545 131.731 72.1344V86.5227H127.615V83.5604H127.446C127.174 84.1059 126.765 84.6419 126.22 85.1685C125.675 85.6952 124.975 86.1324 124.12 86.4804C123.265 86.8283 122.241 87.0023 121.048 87.0023ZM121.964 83.6168C123.129 83.6168 124.125 83.3864 124.952 82.9256C125.788 82.4648 126.422 81.863 126.854 81.1201C127.296 80.3677 127.517 79.5637 127.517 78.7079V75.9149C127.366 76.0653 127.075 76.2064 126.643 76.3381C126.22 76.4603 125.736 76.5685 125.191 76.6625C124.646 76.7471 124.116 76.8271 123.599 76.9023C123.082 76.9681 122.65 77.0246 122.302 77.0716C121.485 77.175 120.738 77.349 120.061 77.5935C119.394 77.838 118.858 78.1907 118.454 78.6515C118.06 79.1029 117.863 79.7047 117.863 80.4571C117.863 81.5009 118.248 82.2909 119.018 82.8269C119.789 83.3535 120.771 83.6168 121.964 83.6168Z" fill="#1E1E1E"/>
<path d="M156.282 73.6579V86.5227H152.068V57.6333H156.226V68.3822H156.494C157.001 67.2161 157.776 66.2898 158.819 65.6033C159.862 64.9168 161.225 64.5735 162.907 64.5735C164.391 64.5735 165.688 64.8792 166.796 65.4904C167.915 66.1017 168.779 67.0139 169.39 68.227C170.01 69.4308 170.32 70.9354 170.32 72.741V86.5227H166.106V73.2488C166.106 71.6595 165.697 70.4276 164.88 69.553C164.062 68.669 162.925 68.227 161.469 68.227C160.473 68.227 159.58 68.4386 158.791 68.8618C158.011 69.285 157.396 69.9057 156.945 70.7238C156.503 71.5326 156.282 72.5106 156.282 73.6579Z" fill="#1E1E1E"/>
<path d="M181.99 87.0023C180.618 87.0023 179.378 86.7484 178.269 86.2406C177.16 85.7234 176.282 84.9757 175.633 83.9977C174.994 83.0197 174.675 81.8207 174.675 80.4006C174.675 79.1781 174.91 78.1719 175.38 77.3819C175.849 76.592 176.484 75.9666 177.282 75.5058C178.081 75.045 178.974 74.6971 179.96 74.4619C180.947 74.2268 181.952 74.0482 182.976 73.9259C184.273 73.7754 185.325 73.6532 186.133 73.5592C186.941 73.4557 187.529 73.2911 187.895 73.0654C188.261 72.8397 188.445 72.473 188.445 71.9652V71.8664C188.445 70.6345 188.097 69.68 187.402 69.0029C186.716 68.3258 185.692 67.9872 184.329 67.9872C182.91 67.9872 181.792 68.3023 180.975 68.9323C180.167 69.553 179.608 70.2442 179.298 71.0059L175.337 70.1031C175.807 68.7866 176.493 67.7239 177.395 66.9152C178.306 66.097 179.354 65.5045 180.538 65.1378C181.722 64.7616 182.967 64.5735 184.273 64.5735C185.137 64.5735 186.053 64.677 187.021 64.8839C187.998 65.0814 188.91 65.4481 189.755 65.9841C190.61 66.5202 191.31 67.2866 191.855 68.2834C192.4 69.2709 192.673 70.5545 192.673 72.1344V86.5227H188.557V83.5604H188.388C188.116 84.1059 187.707 84.6419 187.162 85.1685C186.617 85.6952 185.917 86.1324 185.062 86.4804C184.207 86.8283 183.183 87.0023 181.99 87.0023ZM182.906 83.6168C184.071 83.6168 185.067 83.3864 185.894 82.9256C186.73 82.4648 187.364 81.863 187.796 81.1201C188.238 80.3677 188.459 79.5637 188.459 78.7079V75.9149C188.308 76.0653 188.017 76.2064 187.585 76.3381C187.162 76.4603 186.678 76.5685 186.133 76.6625C185.588 76.7471 185.057 76.8271 184.541 76.9023C184.024 76.9681 183.592 77.0246 183.244 77.0716C182.427 77.175 181.68 77.349 181.003 77.5935C180.336 77.838 179.8 78.1907 179.396 78.6515C179.002 79.1029 178.804 79.7047 178.804 80.4571C178.804 81.5009 179.19 82.2909 179.96 82.8269C180.731 83.3535 181.712 83.6168 182.906 83.6168Z" fill="#1E1E1E"/>
<path d="M55.7859 39.4165C54.955 44.1675 53.0996 48.1819 50.2185 51.4585C47.3411 54.713 43.6896 57.0356 39.2644 58.4253C34.843 59.7928 29.9042 59.9994 24.449 59.0454C19.0162 58.0953 14.4524 56.2267 10.7576 53.4399C7.0666 50.631 4.41924 47.2073 2.81714 43.1694C1.21893 39.1095 0.835909 34.7037 1.66675 29.9526L6.83374 10.6421L17.9548 8.84814L12.0896 30.9214C11.5525 33.993 11.7519 36.8403 12.6873 39.4634C13.6448 42.0904 15.2569 44.3084 17.5232 46.1167C19.7933 47.9028 22.6467 49.0967 26.0837 49.6978C29.5431 50.3027 32.6439 50.1505 35.3855 49.2407C38.1531 48.3127 40.411 46.7716 42.1589 44.6177C43.929 42.4676 45.0827 39.8563 45.6199 36.7847L48.8533 3.86475L59.6033 2.13037L55.7859 39.4165Z" fill="black"/>
<path d="M142.756 64.8555H147.196V68.2412H142.756V80.1611C142.756 80.9791 142.878 81.5951 143.122 82.0088C143.367 82.4131 143.682 82.6904 144.067 82.8408C144.461 82.9818 144.889 83.0527 145.349 83.0527C145.687 83.0527 145.983 83.0294 146.237 82.9824C146.49 82.9354 146.689 82.8974 146.829 82.8691L147.59 86.3535C147.346 86.4476 146.998 86.5417 146.547 86.6357C146.096 86.7392 145.532 86.7953 144.856 86.8047C143.747 86.8235 142.714 86.6257 141.755 86.2119C140.797 85.7982 140.022 85.159 139.43 84.2939C138.838 83.4288 138.541 82.3423 138.541 81.0352V68.2412H135.37V64.8555H138.541V63.624C139.128 63.4873 139.811 63.286 140.562 62.9883C141.348 62.6829 142.079 62.3271 142.756 61.9238V64.8555Z" fill="#1E1E1E"/>
<path d="M65.0305 48.2692V14.9965H74.2585V48.2692H65.0305Z" fill="black"/>
<path d="M109.945 24.4844L101.496 25.0043C101.352 24.2822 101.042 23.6324 100.565 23.0547C100.088 22.4626 99.4602 21.9933 98.6804 21.6467C97.915 21.2856 96.998 21.1051 95.9293 21.1051C94.4996 21.1051 93.2938 21.4084 92.3118 22.0149C91.3298 22.607 90.8388 23.4013 90.8388 24.3977C90.8388 25.192 91.1565 25.8635 91.7919 26.4123C92.4273 26.9611 93.5176 27.4015 95.0628 27.7337L101.085 28.9468C104.32 29.6111 106.731 30.6797 108.32 32.1527C109.908 33.6257 110.703 35.5609 110.703 37.9581C110.703 40.1388 110.06 42.0522 108.775 43.6985C107.504 45.3448 105.757 46.6301 103.533 47.5544C101.323 48.4642 98.7742 48.9191 95.886 48.9191C91.4814 48.9191 87.9722 48.002 85.3583 46.168C82.7589 44.3195 81.2353 41.8067 80.7876 38.6296L89.864 38.1531C90.1384 39.4961 90.8027 40.5214 91.8569 41.2291C92.9111 41.9223 94.2613 42.2688 95.9077 42.2688C97.5251 42.2688 98.8248 41.9584 99.8068 41.3374C100.803 40.702 101.309 39.886 101.323 38.8896C101.309 38.052 100.955 37.366 100.262 36.8317C99.5685 36.2829 98.4999 35.8641 97.0557 35.5753L91.2937 34.4272C88.0444 33.7774 85.6255 32.6509 84.0369 31.048C82.4628 29.445 81.6758 27.4015 81.6758 24.9176C81.6758 22.7803 82.2534 20.9391 83.4087 19.3938C84.5785 17.8486 86.2175 16.6572 88.326 15.8196C90.4488 14.982 92.9327 14.5632 95.7777 14.5632C99.9801 14.5632 103.287 15.4514 105.699 17.2276C108.125 19.0039 109.54 21.4228 109.945 24.4844Z" fill="black"/>
<path d="M132.114 61.4397C129.124 61.4397 126.561 61.0281 124.424 60.2049C122.301 59.3962 120.611 58.2915 119.355 56.8906C118.098 55.4898 117.282 53.9157 116.907 52.1683L125.442 51.0203C125.702 51.6846 126.113 52.3055 126.676 52.8832C127.24 53.4608 127.983 53.923 128.908 54.2696C129.846 54.6306 130.987 54.8111 132.33 54.8111C134.338 54.8111 135.991 54.3201 137.291 53.3381C138.605 52.3705 139.262 50.7459 139.262 48.4642V42.3772H138.872C138.468 43.3014 137.861 44.1751 137.053 44.9982C136.244 45.8214 135.204 46.4929 133.933 47.0128C132.662 47.5327 131.146 47.7926 129.384 47.7926C126.886 47.7926 124.611 47.215 122.561 46.0597C120.524 44.8899 118.9 43.1064 117.687 40.7092C116.488 38.2975 115.889 35.2504 115.889 31.5678C115.889 27.7987 116.503 24.6505 117.73 22.1232C118.958 19.596 120.589 17.7042 122.626 16.4478C124.676 15.1914 126.922 14.5632 129.363 14.5632C131.225 14.5632 132.785 14.8809 134.042 15.5164C135.298 16.1373 136.309 16.9172 137.074 17.8558C137.854 18.7801 138.453 19.6899 138.872 20.5852H139.219V14.9965H148.382V48.5941C148.382 51.4246 147.689 53.793 146.302 55.6992C144.916 57.6055 142.995 59.0352 140.54 59.9883C138.1 60.9559 135.291 61.4397 132.114 61.4397ZM132.309 40.8608C133.796 40.8608 135.052 40.4926 136.078 39.7561C137.118 39.0051 137.912 37.9365 138.461 36.5501C139.024 35.1493 139.305 33.4741 139.305 31.5245C139.305 29.575 139.031 27.8853 138.482 26.4556C137.933 25.0115 137.139 23.8923 136.099 23.098C135.06 22.3038 133.796 21.9066 132.309 21.9066C130.792 21.9066 129.514 22.3182 128.474 23.1414C127.435 23.9501 126.648 25.0765 126.113 26.5206C125.579 27.9647 125.312 29.6327 125.312 31.5245C125.312 33.4452 125.579 35.106 126.113 36.5068C126.662 37.8931 127.449 38.969 128.474 39.7344C129.514 40.4853 130.792 40.8608 132.309 40.8608Z" fill="black"/>
<path d="M172.921 49.208C169.539 49.7321 166.521 49.4983 163.869 48.5064C161.228 47.4981 159.056 45.8327 157.351 43.5102C155.645 41.1734 154.523 38.2711 153.985 34.8033C153.461 31.421 153.658 28.351 154.575 25.593C155.492 22.835 157.031 20.5579 159.193 18.7614C161.37 16.9628 164.071 15.8136 167.296 15.3138C169.465 14.9777 171.539 15.0144 173.516 15.4239C175.506 15.817 177.308 16.5973 178.921 17.7649C180.548 18.9302 181.917 20.501 183.027 22.4772C184.135 24.4391 184.905 26.8187 185.339 29.6158L185.727 32.1203L157.963 36.4228L157.087 30.7715L176.267 27.7992C176.064 26.4863 175.598 25.3675 174.87 24.4427C174.142 23.5179 173.227 22.8486 172.126 22.4348C171.036 22.0045 169.828 21.8922 168.501 22.0978C167.116 22.3123 165.939 22.8236 164.968 23.6317C164.009 24.4233 163.313 25.4006 162.88 26.5639C162.444 27.7128 162.319 28.9377 162.506 30.2386L163.339 35.6116C163.591 37.2385 164.109 38.5977 164.892 39.6893C165.689 40.7787 166.694 41.5582 167.906 42.0279C169.119 42.4976 170.489 42.6142 172.016 42.3775C173.029 42.2205 173.935 41.9341 174.732 41.5182C175.53 41.1023 176.184 40.5625 176.695 39.8987C177.206 39.235 177.555 38.465 177.74 37.5886L186.261 36.8382C186.147 38.931 185.543 40.8366 184.45 42.555C183.37 44.2569 181.853 45.6903 179.9 46.8552C177.959 48.0035 175.632 48.7878 172.921 49.208Z" fill="black"/>
<rect x="63.5664" y="1.48486" width="9.2" height="9.2" transform="rotate(-9.15733 63.5664 1.48486)" fill="black"/>
</svg>
