<svg width="193" height="87" viewBox="0 0 193 87" fill="none" xmlns="http://www.w3.org/2000/svg">
<path d="M39.8665 63.3535C41.4334 64.7452 42.7742 66.2701 43.8908 67.9266C41.5624 69.7941 38.8616 71.2136 35.785 72.1798C31.3636 73.5472 26.4245 73.7539 20.9694 72.7999C15.5369 71.8497 10.9728 69.9811 7.27817 67.1945C5.00351 65.4633 3.12637 63.4969 1.64509 61.299C3.38294 59.9051 5.32897 58.7618 7.48329 57.8697C7.99521 58.3242 8.52882 58.7672 9.08883 59.1934C12.7837 61.9803 17.348 63.8488 22.781 64.799C28.2361 65.753 33.1743 65.5461 37.5956 64.1787C38.3769 63.9334 39.1335 63.6569 39.8665 63.3535Z" fill="#C7C7C7"/>
<path d="M45.7119 29.9524C45.712 31.0172 39.4209 34.9395 29.6126 34.9406C19.8042 34.9416 11.6865 31.0208 11.6864 29.9559C11.6863 28.8911 19.8032 25.301 29.6115 25.3C39.4199 25.299 45.7118 28.8875 45.7119 29.9524Z" fill="#FFA100"/>
<path d="M64.3685 86.5227V57.6333H74.9389C76.9872 57.6333 78.6832 57.9718 80.0268 58.6489C81.3704 59.3166 82.3758 60.2241 83.0429 61.3714C83.71 62.5093 84.0436 63.793 84.0436 65.2224C84.0436 66.4261 83.8228 67.4418 83.3811 68.2693C82.9395 69.0875 82.3476 69.7458 81.6053 70.2442C80.8724 70.7332 80.0644 71.0906 79.1812 71.3163V71.5984C80.1395 71.6454 81.0744 71.9558 81.9858 72.5294C82.9067 73.0936 83.6677 73.8977 84.2691 74.9416C84.8704 75.9854 85.1711 77.255 85.1711 78.7502C85.1711 80.2267 84.8234 81.5526 84.1281 82.7282C83.4422 83.8943 82.3805 84.8206 80.9429 85.5071C79.5053 86.1842 77.6684 86.5227 75.4322 86.5227H64.3685ZM68.7235 82.7846H75.0094C77.0953 82.7846 78.5892 82.3802 79.4912 81.5715C80.3932 80.7627 80.8442 79.7518 80.8442 78.5386C80.8442 77.6264 80.614 76.7895 80.1536 76.0277C79.6932 75.266 79.0355 74.6594 78.1805 74.208C77.3349 73.7566 76.3295 73.5309 75.1644 73.5309H68.7235V82.7846ZM68.7235 70.1314H74.5584C75.5355 70.1314 76.4141 69.9433 77.1939 69.5671C77.9832 69.1909 78.608 68.6643 79.0684 67.9872C79.5382 67.3007 79.7731 66.492 79.7731 65.561C79.7731 64.3666 79.355 63.3651 78.5187 62.5564C77.6825 61.7476 76.4 61.3432 74.6711 61.3432H68.7235V70.1314Z" fill="#C7C7C7"/>
<path d="M99.7253 86.96C97.5924 86.96 95.7555 86.5039 94.2146 85.5917C92.683 84.6701 91.4991 83.377 90.6629 81.7125C89.8361 80.0386 89.4226 78.0778 89.4226 75.8302C89.4226 73.6109 89.8361 71.6548 90.6629 69.9621C91.4991 68.2693 92.6642 66.9481 94.1582 65.9983C95.6615 65.0484 97.4186 64.5735 99.4293 64.5735C100.651 64.5735 101.835 64.7757 102.981 65.1801C104.127 65.5845 105.156 66.2192 106.068 67.0844C106.979 67.9496 107.698 69.0734 108.224 70.4558C108.75 71.8288 109.013 73.498 109.013 75.4635V76.9587H91.8045V73.799H104.884C104.884 72.6893 104.658 71.7065 104.207 70.8508C103.756 69.9856 103.122 69.3038 102.304 68.8054C101.496 68.307 100.547 68.0578 99.4575 68.0578C98.2736 68.0578 97.2401 68.3493 96.3568 68.9323C95.483 69.506 94.8065 70.2583 94.3273 71.1893C93.8575 72.1109 93.6226 73.1125 93.6226 74.1939V76.6625C93.6226 78.1107 93.8763 79.3427 94.3837 80.3583C94.9005 81.374 95.6193 82.1498 96.5401 82.6858C97.4609 83.2125 98.5367 83.4758 99.7676 83.4758C100.566 83.4758 101.294 83.3629 101.952 83.1372C102.61 82.9021 103.178 82.5542 103.657 82.0934C104.137 81.6326 104.503 81.0636 104.757 80.3865L108.745 81.1059C108.426 82.2815 107.853 83.3112 107.026 84.1952C106.208 85.0698 105.18 85.7516 103.939 86.2406C102.708 86.7202 101.304 86.96 99.7253 86.96Z" fill="#C7C7C7"/>
<path d="M120.386 87.0023C119.014 87.0023 117.774 86.7484 116.665 86.2406C115.556 85.7234 114.678 84.9757 114.029 83.9977C113.39 83.0197 113.071 81.8207 113.071 80.4006C113.071 79.1781 113.306 78.1719 113.776 77.3819C114.245 76.592 114.88 75.9666 115.678 75.5058C116.477 75.045 117.37 74.6971 118.356 74.4619C119.343 74.2268 120.348 74.0482 121.372 73.9259C122.669 73.7754 123.721 73.6532 124.529 73.5592C125.337 73.4557 125.925 73.2911 126.291 73.0654C126.657 72.8397 126.841 72.473 126.841 71.9652V71.8664C126.841 70.6345 126.493 69.68 125.798 69.0029C125.112 68.3258 124.088 67.9872 122.725 67.9872C121.306 67.9872 120.188 68.3023 119.371 68.9323C118.563 69.553 118.004 70.2442 117.694 71.0059L113.733 70.1031C114.203 68.7866 114.889 67.7239 115.791 66.9152C116.702 66.097 117.75 65.5045 118.934 65.1378C120.118 64.7616 121.363 64.5735 122.669 64.5735C123.533 64.5735 124.449 64.677 125.417 64.8839C126.394 65.0814 127.306 65.4481 128.151 65.9841C129.006 66.5202 129.706 67.2866 130.251 68.2834C130.796 69.2709 131.069 70.5545 131.069 72.1344V86.5227H126.953V83.5604H126.784C126.512 84.1059 126.103 84.6419 125.558 85.1685C125.013 85.6952 124.313 86.1324 123.458 86.4804C122.603 86.8283 121.579 87.0023 120.386 87.0023ZM121.302 83.6168C122.467 83.6168 123.463 83.3864 124.29 82.9256C125.126 82.4648 125.76 81.863 126.192 81.1201C126.634 80.3677 126.855 79.5637 126.855 78.7079V75.9149C126.704 76.0653 126.413 76.2064 125.981 76.3381C125.558 76.4603 125.074 76.5685 124.529 76.6625C123.984 76.7471 123.453 76.8271 122.937 76.9023C122.42 76.9681 121.988 77.0246 121.64 77.0716C120.823 77.175 120.076 77.349 119.399 77.5935C118.732 77.838 118.196 78.1907 117.792 78.6515C117.398 79.1029 117.2 79.7047 117.2 80.4571C117.2 81.5009 117.586 82.2909 118.356 82.8269C119.127 83.3535 120.108 83.6168 121.302 83.6168Z" fill="#C7C7C7"/>
<path d="M155.62 73.6579V86.5227H151.406V57.6333H155.564V68.3822H155.832C156.339 67.2161 157.114 66.2898 158.157 65.6033C159.2 64.9168 160.563 64.5735 162.244 64.5735C163.729 64.5735 165.026 64.8792 166.134 65.4904C167.253 66.1017 168.117 67.0139 168.728 68.227C169.348 69.4308 169.658 70.9354 169.658 72.741V86.5227H165.444V73.2488C165.444 71.6595 165.035 70.4276 164.218 69.553C163.4 68.669 162.263 68.227 160.807 68.227C159.811 68.227 158.918 68.4386 158.129 68.8618C157.349 69.285 156.734 69.9057 156.283 70.7238C155.841 71.5326 155.62 72.5106 155.62 73.6579Z" fill="#C7C7C7"/>
<path d="M181.328 87.0023C179.956 87.0023 178.715 86.7484 177.607 86.2406C176.498 85.7234 175.62 84.9757 174.971 83.9977C174.332 83.0197 174.013 81.8207 174.013 80.4006C174.013 79.1781 174.248 78.1719 174.718 77.3819C175.187 76.592 175.822 75.9666 176.62 75.5058C177.419 75.045 178.311 74.6971 179.298 74.4619C180.285 74.2268 181.29 74.0482 182.314 73.9259C183.611 73.7754 184.663 73.6532 185.471 73.5592C186.279 73.4557 186.866 73.2911 187.233 73.0654C187.599 72.8397 187.783 72.473 187.783 71.9652V71.8664C187.783 70.6345 187.435 69.68 186.74 69.0029C186.054 68.3258 185.03 67.9872 183.667 67.9872C182.248 67.9872 181.13 68.3023 180.313 68.9323C179.505 69.553 178.946 70.2442 178.636 71.0059L174.675 70.1031C175.145 68.7866 175.831 67.7239 176.733 66.9152C177.644 66.097 178.692 65.5045 179.876 65.1378C181.06 64.7616 182.305 64.5735 183.611 64.5735C184.475 64.5735 185.391 64.677 186.359 64.8839C187.336 65.0814 188.248 65.4481 189.093 65.9841C189.948 66.5202 190.648 67.2866 191.193 68.2834C191.738 69.2709 192.011 70.5545 192.011 72.1344V86.5227H187.895V83.5604H187.726C187.454 84.1059 187.045 84.6419 186.5 85.1685C185.955 85.6952 185.255 86.1324 184.4 86.4804C183.545 86.8283 182.521 87.0023 181.328 87.0023ZM182.244 83.6168C183.409 83.6168 184.405 83.3864 185.232 82.9256C186.068 82.4648 186.702 81.863 187.134 81.1201C187.576 80.3677 187.797 79.5637 187.797 78.7079V75.9149C187.646 76.0653 187.355 76.2064 186.923 76.3381C186.5 76.4603 186.016 76.5685 185.471 76.6625C184.926 76.7471 184.395 76.8271 183.879 76.9023C183.362 76.9681 182.93 77.0246 182.582 77.0716C181.764 77.175 181.017 77.349 180.341 77.5935C179.674 77.838 179.138 78.1907 178.734 78.6515C178.34 79.1029 178.142 79.7047 178.142 80.4571C178.142 81.5009 178.528 82.2909 179.298 82.8269C180.069 83.3535 181.05 83.6168 182.244 83.6168Z" fill="#C7C7C7"/>
<path d="M55.1242 39.4165C54.2934 44.1676 52.4371 48.1819 49.5559 51.4585C46.6785 54.713 43.027 57.0357 38.6018 58.4253C34.1805 59.7927 29.2423 59.9993 23.7873 59.0454C18.3543 58.0953 13.7898 56.2268 10.0949 53.4399C6.40402 50.631 3.75759 47.2072 2.15549 43.1694C0.557291 39.1095 0.173301 34.7037 1.00412 29.9526L6.17209 10.6421L17.2932 8.84814L11.4279 30.9214C10.8908 33.9929 11.0894 36.8403 12.0246 39.4634C12.9821 42.0904 14.5943 44.3084 16.8606 46.1167C19.1307 47.9029 21.9849 49.0966 25.4221 49.6978C28.8812 50.3026 31.9815 50.1503 34.7229 49.2407C37.4904 48.3128 39.7484 46.7715 41.4963 44.6177C43.2664 42.4676 44.4201 39.8563 44.9572 36.7847L48.1916 3.86475L58.9416 2.13037L55.1242 39.4165Z" fill="white"/>
<path d="M142.094 64.8555H146.534V68.2412H142.094V80.1611C142.094 80.9791 142.216 81.5951 142.46 82.0088C142.705 82.4131 143.019 82.6904 143.405 82.8408C143.799 82.9818 144.227 83.0527 144.687 83.0527C145.025 83.0527 145.321 83.0294 145.575 82.9824C145.828 82.9354 146.026 82.8974 146.167 82.8691L146.928 86.3535C146.684 86.4476 146.336 86.5417 145.885 86.6357C145.434 86.7392 144.87 86.7953 144.194 86.8047C143.085 86.8235 142.052 86.6257 141.093 86.2119C140.135 85.7982 139.36 85.159 138.768 84.2939C138.176 83.4288 137.879 82.3423 137.879 81.0352V68.2412H134.708V64.8555H137.879V63.624C138.465 63.4873 139.149 63.286 139.9 62.9883C140.686 62.6829 141.417 62.3271 142.094 61.9238V64.8555Z" fill="#C7C7C7"/>
<path d="M64.3685 48.2692V14.9965H73.5965V48.2692H64.3685Z" fill="white"/>
<path d="M109.283 24.4844L100.834 25.0043C100.69 24.2822 100.379 23.6324 99.9029 23.0547C99.4264 22.4626 98.7982 21.9933 98.0183 21.6467C97.2529 21.2856 96.3359 21.1051 95.2673 21.1051C93.8376 21.1051 92.6317 21.4084 91.6497 22.0149C90.6677 22.607 90.1767 23.4013 90.1767 24.3977C90.1767 25.192 90.4944 25.8635 91.1298 26.4123C91.7653 26.9611 92.8556 27.4015 94.4008 27.7337L100.423 28.9468C103.658 29.6111 106.069 30.6797 107.658 32.1527C109.246 33.6257 110.041 35.5609 110.041 37.9581C110.041 40.1388 109.398 42.0522 108.113 43.6985C106.842 45.3448 105.095 46.6301 102.871 47.5544C100.661 48.4642 98.1122 48.9191 95.2239 48.9191C90.8193 48.9191 87.3101 48.002 84.6962 46.168C82.0968 44.3195 80.5733 41.8067 80.1256 38.6296L89.2019 38.1531C89.4763 39.4961 90.1406 40.5214 91.1948 41.2291C92.249 41.9223 93.5993 42.2688 95.2456 42.2688C96.863 42.2688 98.1627 41.9584 99.1448 41.3374C100.141 40.702 100.647 39.886 100.661 38.8896C100.647 38.052 100.293 37.366 99.5997 36.8317C98.9065 36.2829 97.8378 35.8641 96.3937 35.5753L90.6316 34.4272C87.3823 33.7774 84.9634 32.6509 83.3749 31.048C81.8008 29.445 81.0137 27.4015 81.0137 24.9176C81.0137 22.7803 81.5914 20.9391 82.7467 19.3938C83.9164 17.8486 85.5555 16.6572 87.6639 15.8196C89.7868 14.982 92.2707 14.5632 95.1156 14.5632C99.318 14.5632 102.625 15.4514 105.037 17.2276C107.463 19.0039 108.878 21.4228 109.283 24.4844Z" fill="white"/>
<path d="M131.452 61.4397C128.462 61.4397 125.899 61.0281 123.762 60.2049C121.639 59.3962 119.949 58.2915 118.693 56.8906C117.436 55.4898 116.62 53.9157 116.245 52.1683L124.78 51.0203C125.04 51.6846 125.451 52.3055 126.014 52.8832C126.578 53.4608 127.321 53.923 128.246 54.2696C129.184 54.6306 130.325 54.8111 131.668 54.8111C133.676 54.8111 135.329 54.3201 136.629 53.3381C137.943 52.3705 138.6 50.7459 138.6 48.4642V42.3772H138.21C137.806 43.3014 137.199 44.1751 136.39 44.9982C135.582 45.8214 134.542 46.4929 133.271 47.0128C132 47.5327 130.484 47.7926 128.722 47.7926C126.224 47.7926 123.949 47.215 121.899 46.0597C119.862 44.8899 118.238 43.1064 117.025 40.7092C115.826 38.2975 115.227 35.2504 115.227 31.5678C115.227 27.7987 115.841 24.6505 117.068 22.1232C118.296 19.596 119.927 17.7042 121.964 16.4478C124.014 15.1914 126.26 14.5632 128.701 14.5632C130.563 14.5632 132.123 14.8809 133.379 15.5164C134.636 16.1373 135.647 16.9172 136.412 17.8558C137.192 18.7801 137.791 19.6899 138.21 20.5852H138.557V14.9965H147.72V48.5941C147.72 51.4246 147.027 53.793 145.64 55.6992C144.254 57.6055 142.333 59.0352 139.878 59.9883C137.437 60.9559 134.629 61.4397 131.452 61.4397ZM131.647 40.8608C133.134 40.8608 134.39 40.4926 135.416 39.7561C136.455 39.0051 137.25 37.9365 137.799 36.5501C138.362 35.1493 138.643 33.4741 138.643 31.5245C138.643 29.575 138.369 27.8853 137.82 26.4556C137.271 25.0115 136.477 23.8923 135.437 23.098C134.398 22.3038 133.134 21.9066 131.647 21.9066C130.13 21.9066 128.852 22.3182 127.812 23.1414C126.773 23.9501 125.986 25.0765 125.451 26.5206C124.917 27.9647 124.65 29.6327 124.65 31.5245C124.65 33.4452 124.917 35.106 125.451 36.5068C126 37.8931 126.787 38.969 127.812 39.7344C128.852 40.4853 130.13 40.8608 131.647 40.8608Z" fill="white"/>
<path d="M172.259 49.208C168.877 49.7321 165.859 49.4983 163.206 48.5064C160.566 47.4981 158.393 45.8327 156.689 43.5102C154.983 41.1734 153.861 38.2711 153.323 34.8033C152.799 31.421 152.995 28.351 153.913 25.593C154.83 22.835 156.369 20.5579 158.531 18.7614C160.708 16.9628 163.408 15.8136 166.634 15.3138C168.803 14.9777 170.876 15.0144 172.854 15.4239C174.844 15.817 176.646 16.5973 178.259 17.7649C179.886 18.9302 181.255 20.501 182.365 22.4772C183.473 24.4391 184.243 26.8187 184.677 29.6158L185.065 32.1203L157.301 36.4228L156.425 30.7715L175.605 27.7992C175.402 26.4863 174.936 25.3675 174.208 24.4427C173.48 23.5179 172.565 22.8486 171.464 22.4348C170.374 22.0045 169.166 21.8922 167.838 22.0978C166.454 22.3123 165.277 22.8236 164.306 23.6317C163.347 24.4233 162.651 25.4006 162.217 26.5639C161.782 27.7128 161.657 28.9377 161.844 30.2386L162.677 35.6116C162.929 37.2385 163.447 38.5977 164.229 39.6893C165.027 40.7787 166.032 41.5582 167.244 42.0279C168.457 42.4976 169.827 42.6142 171.354 42.3775C172.367 42.2205 173.272 41.9341 174.07 41.5182C174.868 41.1023 175.522 40.5625 176.033 39.8987C176.544 39.235 176.892 38.465 177.078 37.5886L185.599 36.8382C185.484 38.931 184.881 40.8366 183.788 42.555C182.708 44.2569 181.191 45.6903 179.238 46.8552C177.297 48.0035 174.97 48.7878 172.259 49.208Z" fill="white"/>
<rect x="62.9043" y="1.48486" width="9.2" height="9.2" transform="rotate(-9.15733 62.9043 1.48486)" fill="white"/>
</svg>
