<svg width="32" height="32" viewBox="0 0 32 32" fill="none" xmlns="http://www.w3.org/2000/svg">
<g clip-path="url(#clip0_7_2)">
<circle cx="16" cy="16" r="16" fill="#1E1E1E"/>
<path d="M18.5461 24.3671C19.049 24.8139 19.4795 25.3035 19.8379 25.8352C19.0902 26.4348 18.2234 26.8911 17.2355 27.2013C15.8158 27.6404 14.2294 27.7066 12.4778 27.4003C10.7335 27.0951 9.26777 26.4952 8.08148 25.6004C7.35085 25.0443 6.74909 24.412 6.27338 23.7059C6.83105 23.2588 7.45572 22.8921 8.14712 22.606C8.31166 22.7521 8.48358 22.8944 8.66359 23.0314C9.84998 23.9262 11.3154 24.5262 13.0599 24.8313C14.8114 25.1376 16.397 25.0712 17.8167 24.6321C18.0676 24.5533 18.3107 24.4645 18.5461 24.3671Z" fill="#C7C7C7"/>
<path d="M20.4229 13.6419C20.4229 13.9839 18.4029 15.2433 15.2534 15.2436C12.1039 15.244 9.49739 13.985 9.49735 13.6431C9.49731 13.3012 12.1036 12.1484 15.2531 12.1481C18.4025 12.1477 20.4228 13.3 20.4229 13.6419Z" fill="#FFA100"/>
<path d="M23.445 16.6812C23.1782 18.2067 22.5821 19.4953 21.6569 20.5474C20.7331 21.5923 19.5611 22.3384 18.1403 22.7847C16.7206 23.2238 15.1342 23.2902 13.3825 22.9839C11.6381 22.6788 10.1724 22.0789 8.98602 21.1841C7.80097 20.2822 6.95163 19.1826 6.43719 17.8862C5.92401 16.5826 5.80029 15.1677 6.06708 13.6421L7.72626 7.44189L11.2975 6.86572L9.41473 13.9536C9.24234 14.9397 9.30591 15.8537 9.60614 16.6958C9.9136 17.5393 10.4312 18.2519 11.1589 18.8325C11.8878 19.406 12.8043 19.7889 13.9079 19.9819C15.0186 20.1762 16.014 20.1275 16.8942 19.8354C17.7828 19.5375 18.5078 19.0426 19.069 18.3511C19.6373 17.6608 20.0078 16.8225 20.1804 15.8364L21.2184 5.26514L24.6706 4.7085L23.445 16.6812Z" fill="white"/>
</g>
<defs>
<clipPath id="clip0_7_2">
<rect width="32" height="32" fill="white"/>
</clipPath>
</defs>
</svg>
