<svg width="307" height="127" viewBox="0 0 307 127" fill="none" xmlns="http://www.w3.org/2000/svg">
<path d="M86.9113 65.5351L86.9233 69.7542L86.9353 73.9735L86.9483 78.1926C86.9383 80.2264 86.8075 82.2107 86.5636 84.1397C86.3197 86.0686 85.963 87.9424 85.5017 89.7551C85.0404 91.5678 84.4745 93.3196 83.8124 95.0047C83.1502 96.6897 82.3917 98.3081 81.5452 99.8541C80.6987 101.4 79.7643 102.874 78.7501 104.269C77.7359 105.665 76.6421 106.983 75.4768 108.216C74.3115 109.45 73.0747 110.6 71.7749 111.66C70.4751 112.721 69.1122 113.692 67.6943 114.568C66.2766 115.443 64.8039 116.224 63.2848 116.904C61.7656 117.584 60.1998 118.162 58.5959 118.635C56.9918 119.107 55.3496 119.473 53.6775 119.726C52.0053 119.98 50.3032 120.121 48.5794 120.144C46.8555 120.167 45.11 120.072 43.3511 119.854C41.5923 119.635 39.82 119.293 38.0427 118.822C36.2653 118.35 34.4828 117.749 32.7036 117.013C30.9244 116.277 29.1484 115.406 27.3837 114.394C25.8227 113.482 24.3422 112.481 22.9456 111.401C21.5488 110.321 20.2359 109.163 19.0101 107.936C17.7843 106.709 16.6456 105.414 15.5974 104.061C14.5491 102.708 13.5913 101.297 12.7271 99.8391C11.8629 98.3809 11.0925 96.8754 10.419 95.3328C9.7457 93.7904 9.16929 92.2109 8.69309 90.6049C8.21709 88.9989 7.8412 87.3664 7.5691 85.7177C7.2969 84.0691 7.1284 82.4043 7.0668 80.7339C7.0048 79.0635 7.05079 77.3875 7.20589 75.7161C7.36139 74.0448 7.62719 72.3783 8.00629 70.7269C8.38559 69.0755 8.8783 67.4394 9.488 65.8288C25.9206 47.4888 74.6388 52.9983 86.9113 65.5351Z" fill="#FFD182"/>
<path d="M86.9113 65.535L86.9233 69.7542L86.9353 73.9734L86.9483 78.1926C86.9383 80.2264 86.8075 82.2107 86.5636 84.1396C86.3197 86.0686 85.963 87.9423 85.5017 89.7551C85.0404 91.5678 84.4745 93.3196 83.8124 95.0046C83.1502 96.6897 82.3917 98.3081 81.5452 99.8541C80.6987 101.4 79.7643 102.874 78.7501 104.269C77.7359 105.665 76.6421 106.983 75.4768 108.216C74.3115 109.45 73.0747 110.6 71.7749 111.66C70.4751 112.721 69.1122 113.692 67.6943 114.568C66.2766 115.443 64.8039 116.224 63.2848 116.904C61.7656 117.584 60.1998 118.162 58.5959 118.635C56.9918 119.107 55.3496 119.473 53.6775 119.726C52.0053 119.98 50.3031 120.121 48.5794 120.144C46.8555 120.167 45.11 120.072 43.3511 119.854C41.5923 119.635 39.82 119.293 38.0427 118.822C36.2653 118.35 34.4828 117.749 32.7036 117.013C30.9244 116.277 29.1484 115.406 27.3837 114.394C25.8227 113.482 24.3422 112.481 22.9456 111.401C21.5488 110.321 20.2359 109.163 19.0101 107.936C17.7843 106.709 16.6456 105.414 15.5974 104.061C14.5491 102.708 13.5913 101.297 12.7271 99.8391C11.8629 98.3809 11.0925 96.8753 10.419 95.3328C9.7457 93.7903 9.16929 92.2109 8.69309 90.6049C8.21709 88.9989 7.8412 87.3663 7.5691 85.7177C7.2969 84.0691 7.1284 82.4043 7.0668 80.7339C7.0048 79.0635 7.05079 77.3874 7.20589 75.7161C7.36139 74.0448 7.62719 72.3782 8.00629 70.7269C8.38559 69.0755 8.8783 67.4393 9.488 65.8288C16.4388 87.4361 77.7348 87.2608 86.9113 65.535Z" fill="#FFA100"/>
<path d="M92.1054 78.3351V78.3635C92.0165 96.762 83.1308 111.801 70.0234 119.898C56.8817 128.016 39.7502 128.989 23.6826 119.776L23.6699 119.768L23.6572 119.761C9.35786 111.406 0.943301 96.5142 0.376927 81.1662C-0.193526 65.7066 7.20241 49.9353 24.0947 40.006L24.1123 39.9963L91.874 0.665222L92.1054 78.3351ZM27.7968 46.3058L27.7978 46.3068C13.2327 54.8684 7.20785 68.1102 7.67966 80.8967C8.15546 93.7906 15.2422 106.374 27.332 113.444C41.0981 121.332 55.3534 120.369 66.1826 113.68C77.043 106.971 84.7115 94.3357 84.7978 78.3566L84.6035 13.3342L27.7968 46.3058Z" fill="white"/>
<path d="M138.403 11.6364H145.118V40.815C145.118 43.9199 144.389 46.6709 142.93 49.0682C141.471 51.451 139.421 53.3284 136.778 54.7003C134.135 56.0578 131.038 56.7365 127.485 56.7365C123.947 56.7365 120.857 56.0578 118.214 54.7003C115.571 53.3284 113.52 51.451 112.062 49.0682C110.603 46.6709 109.874 43.9199 109.874 40.815V11.6364H116.567V40.2734C116.567 42.2808 117.008 44.0643 117.889 45.6239C118.784 47.1836 120.048 48.4111 121.68 49.3065C123.312 50.1874 125.247 50.6278 127.485 50.6278C129.738 50.6278 131.68 50.1874 133.312 49.3065C134.958 48.4111 136.215 47.1836 137.081 45.6239C137.962 44.0643 138.403 42.2808 138.403 40.2734V11.6364Z" fill="white"/>
<path d="M152.94 56V22.7273H159.417V56H152.94ZM156.211 17.5934C155.084 17.5934 154.117 17.2179 153.308 16.467C152.514 15.7016 152.116 14.7918 152.116 13.7376C152.116 12.6689 152.514 11.7591 153.308 11.0082C154.117 10.2428 155.084 9.86008 156.211 9.86008C157.337 9.86008 158.297 10.2428 159.092 11.0082C159.9 11.7591 160.305 12.6689 160.305 13.7376C160.305 14.7918 159.9 15.7016 159.092 16.467C158.297 17.2179 157.337 17.5934 156.211 17.5934Z" fill="white"/>
<path d="M193.673 30.8505L187.803 31.8903C187.557 31.1393 187.167 30.4245 186.633 29.7457C186.113 29.067 185.405 28.511 184.51 28.0778C183.615 27.6445 182.495 27.4279 181.152 27.4279C179.318 27.4279 177.788 27.8395 176.56 28.6626C175.333 29.4714 174.719 30.5183 174.719 31.8036C174.719 32.9156 175.13 33.811 175.953 34.4897C176.777 35.1684 178.105 35.7244 179.939 36.1577L185.225 37.3707C188.286 38.0784 190.568 39.1687 192.07 40.6417C193.572 42.1147 194.323 44.0282 194.323 46.3821C194.323 48.375 193.745 50.1513 192.59 51.7109C191.449 53.2562 189.853 54.4692 187.803 55.3501C185.766 56.2311 183.405 56.6715 180.719 56.6715C176.993 56.6715 173.953 55.8772 171.599 54.2887C169.246 52.6857 167.801 50.4112 167.267 47.4652L173.527 46.5121C173.917 48.1439 174.719 49.3787 175.932 50.2163C177.145 51.0394 178.726 51.451 180.676 51.451C182.799 51.451 184.496 51.0105 185.766 50.1296C187.037 49.2343 187.673 48.1439 187.673 46.8587C187.673 45.8189 187.283 44.9452 186.503 44.2376C185.737 43.5299 184.56 42.9956 182.972 42.6346L177.34 41.3999C174.235 40.6922 171.939 39.5658 170.451 38.0206C168.978 36.4754 168.242 34.5186 168.242 32.1502C168.242 30.1862 168.791 28.4677 169.888 26.9947C170.986 25.5217 172.502 24.3736 174.437 23.5504C176.372 22.7128 178.589 22.294 181.087 22.294C184.683 22.294 187.514 23.0739 189.579 24.6335C191.644 26.1787 193.009 28.2511 193.673 30.8505Z" fill="white"/>
<path d="M216.004 69.1705C213.362 69.1705 211.087 68.8239 209.181 68.1307C207.289 67.4375 205.744 66.5205 204.545 65.3796C203.347 64.2388 202.451 62.9896 201.859 61.6321L207.426 59.3359C207.816 59.9714 208.336 60.6429 208.986 61.3505C209.65 62.0726 210.546 62.6863 211.672 63.1918C212.813 63.6972 214.279 63.9499 216.069 63.9499C218.524 63.9499 220.553 63.3506 222.156 62.152C223.759 60.9678 224.561 59.076 224.561 56.4766V49.9347H224.149C223.759 50.6423 223.196 51.4293 222.46 52.2958C221.738 53.1623 220.741 53.9132 219.47 54.5487C218.2 55.1841 216.546 55.5018 214.51 55.5018C211.881 55.5018 209.513 54.888 207.405 53.6605C205.311 52.4186 203.65 50.5917 202.422 48.18C201.209 45.7539 200.603 42.7718 200.603 39.2337C200.603 35.6955 201.202 32.6629 202.401 30.1357C203.614 27.6084 205.275 25.6733 207.383 24.3303C209.491 22.9728 211.881 22.294 214.553 22.294C216.618 22.294 218.286 22.6406 219.557 23.3338C220.828 24.0125 221.817 24.8068 222.525 25.7166C223.247 26.6264 223.803 27.4279 224.193 28.1211H224.669V22.7273H231.016V56.7365C231.016 59.5959 230.352 61.9426 229.023 63.7766C227.695 65.6107 225.897 66.9682 223.629 67.8491C221.377 68.73 218.835 69.1705 216.004 69.1705ZM215.939 50.1296C217.802 50.1296 219.376 49.6964 220.662 48.8299C221.961 47.949 222.943 46.6926 223.608 45.0607C224.287 43.4144 224.626 41.4432 224.626 39.147C224.626 36.9086 224.294 34.9374 223.629 33.2333C222.965 31.5292 221.99 30.2006 220.705 29.2475C219.42 28.2799 217.831 27.7962 215.939 27.7962C213.99 27.7962 212.365 28.3016 211.066 29.3125C209.766 30.3089 208.784 31.6664 208.12 33.3849C207.47 35.1035 207.145 37.0241 207.145 39.147C207.145 41.3277 207.477 43.2411 208.141 44.8874C208.805 46.5337 209.787 47.819 211.087 48.7433C212.401 49.6675 214.019 50.1296 215.939 50.1296Z" fill="white"/>
<path d="M253.653 56.6715C250.375 56.6715 247.551 55.9711 245.183 54.5703C242.829 53.1551 241.009 51.1694 239.724 48.6133C238.453 46.0427 237.818 43.0317 237.818 39.5803C237.818 36.1721 238.453 33.1683 239.724 30.5689C241.009 27.9695 242.8 25.9405 245.096 24.4819C247.407 23.0233 250.107 22.294 253.198 22.294C255.075 22.294 256.895 22.6045 258.657 23.2255C260.419 23.8465 262 24.8213 263.401 26.1499C264.801 27.4785 265.906 29.2042 266.715 31.3271C267.524 33.4355 267.928 35.9988 267.928 39.017V41.3132H241.479V36.4609H261.581C261.581 34.7569 261.234 33.2478 260.541 31.9336C259.848 30.605 258.873 29.558 257.617 28.7926C256.375 28.0272 254.916 27.6445 253.241 27.6445C251.422 27.6445 249.833 28.0922 248.476 28.9876C247.133 29.8685 246.093 31.0238 245.356 32.4535C244.634 33.8687 244.273 35.4067 244.273 37.0675V40.8583C244.273 43.0823 244.663 44.9741 245.443 46.5337C246.237 48.0934 247.342 49.2848 248.757 50.108C250.172 50.9167 251.826 51.321 253.718 51.321C254.945 51.321 256.065 51.1477 257.075 50.8011C258.086 50.4401 258.96 49.9058 259.696 49.1982C260.433 48.4905 260.996 47.6168 261.386 46.5771L267.516 47.6818C267.025 49.487 266.145 51.0683 264.874 52.4258C263.617 53.7688 262.036 54.8158 260.13 55.5668C258.238 56.3033 256.079 56.6715 253.653 56.6715Z" fill="white"/>
<path d="M109.874 112V67.6364H126.12C129.269 67.6364 131.875 68.1562 133.94 69.196C136.005 70.2214 137.551 71.6149 138.576 73.3768C139.601 75.1242 140.114 77.0954 140.114 79.2905C140.114 81.139 139.775 82.6986 139.096 83.9695C138.417 85.2259 137.507 86.2367 136.366 87.0021C135.24 87.7531 133.998 88.3018 132.641 88.6484V89.0817C134.114 89.1539 135.551 89.6304 136.951 90.5114C138.367 91.3778 139.536 92.6126 140.461 94.2156C141.385 95.8185 141.847 97.7681 141.847 100.064C141.847 102.332 141.313 104.368 140.244 106.173C139.19 107.964 137.558 109.386 135.348 110.44C133.139 111.48 130.316 112 126.879 112H109.874ZM116.567 106.26H126.229C129.435 106.26 131.731 105.639 133.117 104.397C134.504 103.155 135.197 101.602 135.197 99.7393C135.197 98.3385 134.843 97.0533 134.135 95.8835C133.428 94.7138 132.417 93.7823 131.103 93.0891C129.803 92.396 128.258 92.0494 126.467 92.0494H116.567V106.26ZM116.567 86.8288H125.536C127.037 86.8288 128.388 86.54 129.586 85.9624C130.799 85.3847 131.76 84.576 132.467 83.5362C133.189 82.482 133.55 81.2401 133.55 79.8104C133.55 77.9763 132.908 76.4383 131.623 75.1964C130.337 73.9544 128.366 73.3335 125.709 73.3335H116.567V86.8288Z" fill="white"/>
<path d="M164.216 112.672C160.938 112.672 158.115 111.971 155.747 110.57C153.393 109.155 151.573 107.169 150.288 104.613C149.017 102.043 148.381 99.0317 148.381 95.5803C148.381 92.1721 149.017 89.1683 150.288 86.5689C151.573 83.9695 153.364 81.9405 155.66 80.4819C157.97 79.0233 160.671 78.294 163.761 78.294C165.639 78.294 167.458 78.6045 169.22 79.2255C170.982 79.8465 172.563 80.8213 173.964 82.1499C175.365 83.4785 176.47 85.2042 177.279 87.3271C178.087 89.4355 178.492 91.9988 178.492 95.017V97.3132H152.042V92.4609H172.145C172.145 90.7569 171.798 89.2478 171.105 87.9336C170.412 86.605 169.437 85.558 168.18 84.7926C166.939 84.0272 165.48 83.6445 163.805 83.6445C161.985 83.6445 160.397 84.0922 159.039 84.9876C157.696 85.8685 156.656 87.0238 155.92 88.4535C155.198 89.8687 154.837 91.4067 154.837 93.0675V96.8583C154.837 99.0823 155.227 100.974 156.006 102.534C156.801 104.093 157.906 105.285 159.321 106.108C160.736 106.917 162.39 107.321 164.281 107.321C165.509 107.321 166.628 107.148 167.639 106.801C168.65 106.44 169.524 105.906 170.26 105.198C170.997 104.491 171.56 103.617 171.95 102.577L178.08 103.682C177.589 105.487 176.708 107.068 175.437 108.426C174.181 109.769 172.6 110.816 170.693 111.567C168.801 112.303 166.642 112.672 164.216 112.672Z" fill="white"/>
<path d="M195.971 112.737C193.862 112.737 191.956 112.347 190.252 111.567C188.548 110.772 187.198 109.624 186.201 108.123C185.219 106.621 184.728 104.779 184.728 102.599C184.728 100.721 185.089 99.1761 185.811 97.9631C186.533 96.75 187.508 95.7897 188.736 95.082C189.963 94.3744 191.335 93.8401 192.851 93.479C194.368 93.118 195.913 92.8436 197.487 92.6559C199.48 92.4248 201.097 92.2371 202.339 92.0927C203.581 91.9338 204.484 91.6811 205.047 91.3345C205.61 90.9879 205.892 90.4247 205.892 89.6449V89.4932C205.892 87.6014 205.358 86.1357 204.289 85.0959C203.235 84.0561 201.661 83.5362 199.567 83.5362C197.386 83.5362 195.668 84.02 194.411 84.9876C193.169 85.9407 192.31 87.0021 191.833 88.1719L185.746 86.7855C186.468 84.7637 187.523 83.1319 188.909 81.8899C190.31 80.6335 191.92 79.7237 193.74 79.1605C195.559 78.5829 197.473 78.294 199.48 78.294C200.809 78.294 202.217 78.4529 203.704 78.7706C205.206 79.0739 206.607 79.6371 207.907 80.4602C209.221 81.2834 210.297 82.4603 211.134 83.9911C211.972 85.5075 212.391 87.4787 212.391 89.9048V112H206.065V107.451H205.805C205.387 108.289 204.758 109.112 203.921 109.92C203.083 110.729 202.007 111.401 200.693 111.935C199.379 112.469 197.805 112.737 195.971 112.737ZM197.379 107.538C199.17 107.538 200.7 107.184 201.971 106.476C203.256 105.769 204.231 104.844 204.896 103.703C205.574 102.548 205.914 101.313 205.914 99.9993V95.7102C205.683 95.9413 205.235 96.1579 204.571 96.3601C203.921 96.5478 203.177 96.7139 202.339 96.8583C201.502 96.9883 200.686 97.111 199.892 97.2266C199.097 97.3277 198.433 97.4143 197.899 97.4865C196.642 97.6454 195.494 97.9125 194.454 98.288C193.429 98.6635 192.606 99.205 191.985 99.9126C191.378 100.606 191.075 101.53 191.075 102.685C191.075 104.288 191.667 105.501 192.851 106.325C194.036 107.133 195.545 107.538 197.379 107.538Z" fill="white"/>
<path d="M236.159 78.7273V83.9261H217.985V78.7273H236.159ZM222.859 70.7557H229.336V102.23C229.336 103.487 229.523 104.433 229.899 105.068C230.274 105.689 230.758 106.115 231.35 106.346C231.957 106.563 232.614 106.671 233.321 106.671C233.841 106.671 234.296 106.635 234.686 106.563C235.076 106.491 235.379 106.433 235.596 106.39L236.766 111.74C236.39 111.884 235.856 112.029 235.163 112.173C234.469 112.332 233.603 112.419 232.563 112.433C230.859 112.462 229.271 112.159 227.798 111.523C226.324 110.888 225.133 109.906 224.223 108.577C223.313 107.249 222.859 105.581 222.859 103.574V70.7557Z" fill="white"/>
<path d="M250.125 92.2443V112H243.649V67.6364H250.039V84.1428H250.45C251.23 82.352 252.422 80.9296 254.025 79.8754C255.628 78.8211 257.722 78.294 260.307 78.294C262.588 78.294 264.581 78.7634 266.285 79.7021C268.004 80.6407 269.332 82.0415 270.271 83.9045C271.224 85.753 271.701 88.0636 271.701 90.8363V112H265.224V91.6161C265.224 89.1755 264.596 87.2837 263.339 85.9407C262.083 84.5832 260.335 83.9045 258.097 83.9045C256.566 83.9045 255.194 84.2294 253.981 84.8793C252.783 85.5291 251.837 86.4822 251.144 87.7386C250.465 88.9806 250.125 90.4825 250.125 92.2443Z" fill="white"/>
<path d="M289.637 112.737C287.528 112.737 285.622 112.347 283.918 111.567C282.214 110.772 280.864 109.624 279.867 108.123C278.885 106.621 278.394 104.779 278.394 102.599C278.394 100.721 278.755 99.1761 279.477 97.9631C280.199 96.75 281.174 95.7897 282.402 95.082C283.629 94.3744 285.001 93.8401 286.517 93.479C288.034 93.118 289.579 92.8436 291.153 92.6559C293.146 92.4248 294.763 92.2371 296.005 92.0927C297.247 91.9338 298.15 91.6811 298.713 91.3345C299.276 90.9879 299.558 90.4247 299.558 89.6449V89.4932C299.558 87.6014 299.024 86.1357 297.955 85.0959C296.901 84.0561 295.327 83.5362 293.233 83.5362C291.052 83.5362 289.333 84.02 288.077 84.9876C286.835 85.9407 285.976 87.0021 285.499 88.1719L279.412 86.7855C280.134 84.7637 281.189 83.1319 282.575 81.8899C283.976 80.6335 285.586 79.7237 287.406 79.1605C289.225 78.5829 291.139 78.294 293.146 78.294C294.475 78.294 295.883 78.4529 297.37 78.7706C298.872 79.0739 300.273 79.6371 301.572 80.4602C302.887 81.2834 303.962 82.4603 304.8 83.9911C305.638 85.5075 306.056 87.4787 306.056 89.9048V112H299.731V107.451H299.471C299.052 108.289 298.424 109.112 297.587 109.92C296.749 110.729 295.673 111.401 294.359 111.935C293.045 112.469 291.471 112.737 289.637 112.737ZM291.045 107.538C292.835 107.538 294.366 107.184 295.637 106.476C296.922 105.769 297.897 104.844 298.561 103.703C299.24 102.548 299.58 101.313 299.58 99.9993V95.7102C299.348 95.9413 298.901 96.1579 298.237 96.3601C297.587 96.5478 296.843 96.7139 296.005 96.8583C295.168 96.9883 294.352 97.111 293.558 97.2266C292.763 97.3277 292.099 97.4143 291.565 97.4865C290.308 97.6454 289.16 97.9125 288.12 98.288C287.095 98.6635 286.272 99.205 285.651 99.9126C285.044 100.606 284.741 101.53 284.741 102.685C284.741 104.288 285.333 105.501 286.517 106.325C287.702 107.133 289.211 107.538 291.045 107.538Z" fill="white"/>
</svg>
