<svg width="193" height="87" viewBox="0 0 193 87" fill="none" xmlns="http://www.w3.org/2000/svg">
<path d="M40.1805 63.3535C41.7474 64.7452 43.0883 66.2701 44.2049 67.9266C41.8764 69.7941 39.1757 71.2136 36.099 72.1798C31.6777 73.5472 26.7385 73.7539 21.2834 72.7999C15.8509 71.8497 11.2869 69.9811 7.59223 67.1945C5.31757 65.4633 3.44043 63.4969 1.95915 61.299C3.69699 59.9051 5.64303 58.7618 7.79735 57.8697C8.30927 58.3242 8.84288 58.7672 9.40289 59.1934C13.0977 61.9803 17.662 63.8488 23.095 64.799C28.5501 65.753 33.4884 65.5461 37.9097 64.1787C38.6909 63.9334 39.4476 63.6569 40.1805 63.3535Z" fill="white"/>
<path d="M46.026 29.9524C46.0261 31.0172 39.735 34.9395 29.9266 34.9406C20.1183 34.9416 12.0006 31.0208 12.0005 29.9559C12.0004 28.8911 20.1172 25.301 29.9256 25.3C39.734 25.299 46.0259 28.8875 46.026 29.9524Z" fill="#FFA100"/>
<path d="M64.6825 86.5227V57.6333H75.253C77.3013 57.6333 78.9972 57.9718 80.3409 58.6489C81.6845 59.3166 82.6898 60.2241 83.3569 61.3714C84.0241 62.5093 84.3576 63.793 84.3576 65.2224C84.3576 66.4261 84.1368 67.4418 83.6952 68.2693C83.2536 69.0875 82.6617 69.7458 81.9194 70.2442C81.1865 70.7332 80.3784 71.0906 79.4952 71.3163V71.5984C80.4536 71.6454 81.3885 71.9558 82.2999 72.5294C83.2207 73.0936 83.9818 73.8977 84.5831 74.9416C85.1845 75.9854 85.4851 77.255 85.4851 78.7502C85.4851 80.2267 85.1375 81.5526 84.4422 82.7282C83.7563 83.8943 82.6945 84.8206 81.257 85.5071C79.8194 86.1842 77.9825 86.5227 75.7462 86.5227H64.6825ZM69.0375 82.7846H75.3234C77.4093 82.7846 78.9033 82.3802 79.8053 81.5715C80.7073 80.7627 81.1583 79.7518 81.1583 78.5386C81.1583 77.6264 80.9281 76.7895 80.4677 76.0277C80.0073 75.266 79.3496 74.6594 78.4946 74.208C77.6489 73.7566 76.6436 73.5309 75.4785 73.5309H69.0375V82.7846ZM69.0375 70.1314H74.8724C75.8496 70.1314 76.7281 69.9433 77.508 69.5671C78.2972 69.1909 78.9221 68.6643 79.3825 67.9872C79.8523 67.3007 80.0872 66.492 80.0872 65.561C80.0872 64.3666 79.669 63.3651 78.8328 62.5564C77.9966 61.7476 76.714 61.3432 74.9852 61.3432H69.0375V70.1314Z" fill="#C7C7C7"/>
<path d="M100.039 86.96C97.9065 86.96 96.0696 86.5039 94.5286 85.5917C92.9971 84.6701 91.8132 83.377 90.977 81.7125C90.1501 80.0386 89.7367 78.0778 89.7367 75.8302C89.7367 73.6109 90.1501 71.6548 90.977 69.9621C91.8132 68.2693 92.9783 66.9481 94.4722 65.9983C95.9756 65.0484 97.7326 64.5735 99.7434 64.5735C100.965 64.5735 102.149 64.7757 103.295 65.1801C104.441 65.5845 105.47 66.2192 106.382 67.0844C107.293 67.9496 108.012 69.0734 108.538 70.4558C109.064 71.8288 109.327 73.498 109.327 75.4635V76.9587H92.1186V73.799H105.198C105.198 72.6893 104.972 71.7065 104.521 70.8508C104.07 69.9856 103.436 69.3038 102.619 68.8054C101.81 68.307 100.861 68.0578 99.7716 68.0578C98.5877 68.0578 97.5541 68.3493 96.6709 68.9323C95.7971 69.506 95.1206 70.2583 94.6414 71.1893C94.1716 72.1109 93.9367 73.1125 93.9367 74.1939V76.6625C93.9367 78.1107 94.1904 79.3427 94.6977 80.3583C95.2145 81.374 95.9333 82.1498 96.8541 82.6858C97.7749 83.2125 98.8508 83.4758 100.082 83.4758C100.88 83.4758 101.608 83.3629 102.266 83.1372C102.924 82.9021 103.492 82.5542 103.972 82.0934C104.451 81.6326 104.817 81.0636 105.071 80.3865L109.059 81.1059C108.74 82.2815 108.167 83.3112 107.34 84.1952C106.523 85.0698 105.494 85.7516 104.253 86.2406C103.023 86.7202 101.618 86.96 100.039 86.96Z" fill="#C7C7C7"/>
<path d="M120.7 87.0023C119.328 87.0023 118.088 86.7484 116.979 86.2406C115.87 85.7234 114.992 84.9757 114.343 83.9977C113.704 83.0197 113.385 81.8207 113.385 80.4006C113.385 79.1781 113.62 78.1719 114.09 77.3819C114.559 76.592 115.194 75.9666 115.992 75.5058C116.791 75.045 117.684 74.6971 118.67 74.4619C119.657 74.2268 120.662 74.0482 121.686 73.9259C122.983 73.7754 124.035 73.6532 124.843 73.5592C125.651 73.4557 126.239 73.2911 126.605 73.0654C126.972 72.8397 127.155 72.473 127.155 71.9652V71.8664C127.155 70.6345 126.807 69.68 126.112 69.0029C125.426 68.3258 124.402 67.9872 123.039 67.9872C121.621 67.9872 120.502 68.3023 119.685 68.9323C118.877 69.553 118.318 70.2442 118.008 71.0059L114.047 70.1031C114.517 68.7866 115.203 67.7239 116.105 66.9152C117.017 66.097 118.064 65.5045 119.248 65.1378C120.432 64.7616 121.677 64.5735 122.983 64.5735C123.847 64.5735 124.763 64.677 125.731 64.8839C126.708 65.0814 127.62 65.4481 128.465 65.9841C129.321 66.5202 130.021 67.2866 130.565 68.2834C131.11 69.2709 131.383 70.5545 131.383 72.1344V86.5227H127.267V83.5604H127.098C126.826 84.1059 126.417 84.6419 125.872 85.1685C125.327 85.6952 124.627 86.1324 123.772 86.4804C122.917 86.8283 121.893 87.0023 120.7 87.0023ZM121.616 83.6168C122.781 83.6168 123.777 83.3864 124.604 82.9256C125.44 82.4648 126.074 81.863 126.506 81.1201C126.948 80.3677 127.169 79.5637 127.169 78.7079V75.9149C127.019 76.0653 126.727 76.2064 126.295 76.3381C125.872 76.4603 125.388 76.5685 124.843 76.6625C124.298 76.7471 123.768 76.8271 123.251 76.9023C122.734 76.9681 122.302 77.0246 121.954 77.0716C121.137 77.175 120.39 77.349 119.713 77.5935C119.046 77.838 118.51 78.1907 118.106 78.6515C117.712 79.1029 117.515 79.7047 117.515 80.4571C117.515 81.5009 117.9 82.2909 118.67 82.8269C119.441 83.3535 120.423 83.6168 121.616 83.6168Z" fill="#C7C7C7"/>
<path d="M155.934 73.6579V86.5227H151.72V57.6333H155.878V68.3822H156.146C156.653 67.2161 157.428 66.2898 158.471 65.6033C159.514 64.9168 160.877 64.5735 162.559 64.5735C164.043 64.5735 165.34 64.8792 166.448 65.4904C167.567 66.1017 168.431 67.0139 169.042 68.227C169.662 69.4308 169.972 70.9354 169.972 72.741V86.5227H165.758V73.2488C165.758 71.6595 165.349 70.4276 164.532 69.553C163.714 68.669 162.577 68.227 161.121 68.227C160.125 68.227 159.232 68.4386 158.443 68.8618C157.663 69.285 157.048 69.9057 156.597 70.7238C156.155 71.5326 155.934 72.5106 155.934 73.6579Z" fill="#C7C7C7"/>
<path d="M181.642 87.0023C180.27 87.0023 179.03 86.7484 177.921 86.2406C176.812 85.7234 175.934 84.9757 175.285 83.9977C174.646 83.0197 174.327 81.8207 174.327 80.4006C174.327 79.1781 174.562 78.1719 175.032 77.3819C175.501 76.592 176.136 75.9666 176.934 75.5058C177.733 75.045 178.626 74.6971 179.612 74.4619C180.599 74.2268 181.604 74.0482 182.628 73.9259C183.925 73.7754 184.977 73.6532 185.785 73.5592C186.593 73.4557 187.181 73.2911 187.547 73.0654C187.913 72.8397 188.097 72.473 188.097 71.9652V71.8664C188.097 70.6345 187.749 69.68 187.054 69.0029C186.368 68.3258 185.344 67.9872 183.981 67.9872C182.562 67.9872 181.444 68.3023 180.627 68.9323C179.819 69.553 179.26 70.2442 178.95 71.0059L174.989 70.1031C175.459 68.7866 176.145 67.7239 177.047 66.9152C177.958 66.097 179.006 65.5045 180.19 65.1378C181.374 64.7616 182.619 64.5735 183.925 64.5735C184.789 64.5735 185.705 64.677 186.673 64.8839C187.65 65.0814 188.562 65.4481 189.407 65.9841C190.262 66.5202 190.962 67.2866 191.507 68.2834C192.052 69.2709 192.325 70.5545 192.325 72.1344V86.5227H188.209V83.5604H188.04C187.768 84.1059 187.359 84.6419 186.814 85.1685C186.269 85.6952 185.569 86.1324 184.714 86.4804C183.859 86.8283 182.835 87.0023 181.642 87.0023ZM182.558 83.6168C183.723 83.6168 184.719 83.3864 185.546 82.9256C186.382 82.4648 187.016 81.863 187.448 81.1201C187.89 80.3677 188.111 79.5637 188.111 78.7079V75.9149C187.96 76.0653 187.669 76.2064 187.237 76.3381C186.814 76.4603 186.33 76.5685 185.785 76.6625C185.24 76.7471 184.709 76.8271 184.193 76.9023C183.676 76.9681 183.244 77.0246 182.896 77.0716C182.079 77.175 181.332 77.349 180.655 77.5935C179.988 77.838 179.452 78.1907 179.048 78.6515C178.654 79.1029 178.456 79.7047 178.456 80.4571C178.456 81.5009 178.842 82.2909 179.612 82.8269C180.383 83.3535 181.364 83.6168 182.558 83.6168Z" fill="#C7C7C7"/>
<path d="M55.4387 39.4165C54.6079 44.1675 52.7516 48.1819 49.8704 51.4585C46.993 54.713 43.3415 57.0356 38.9163 58.4253C34.4949 59.7928 29.5561 59.9994 24.1009 59.0454C18.6681 58.0953 14.1042 56.2267 10.4095 53.4399C6.71848 50.6309 4.07112 47.2073 2.46902 43.1694C0.87082 39.1095 0.487797 34.7037 1.31863 29.9526L6.48562 10.6421L17.6077 8.84814L11.7415 30.9214C11.2044 33.9929 11.4038 36.8403 12.3391 39.4634C13.2967 42.0904 14.9088 44.3084 17.1751 46.1167C19.4451 47.9028 22.2986 49.0967 25.7356 49.6978C29.195 50.3027 32.2958 50.1505 35.0374 49.2407C37.805 48.3127 40.0629 46.7716 41.8108 44.6177C43.5809 42.4676 44.7346 39.8563 45.2718 36.7847L48.5052 3.86475L59.2552 2.13037L55.4387 39.4165Z" fill="white"/>
<path d="M142.408 64.8555H146.848V68.2412H142.408V80.1611C142.408 80.9791 142.53 81.5951 142.774 82.0088C143.019 82.4131 143.334 82.6904 143.719 82.8408C144.113 82.9818 144.541 83.0527 145.001 83.0527C145.339 83.0527 145.635 83.0294 145.889 82.9824C146.142 82.9354 146.341 82.8974 146.481 82.8691L147.242 86.3535C146.998 86.4476 146.65 86.5417 146.199 86.6357C145.748 86.7392 145.184 86.7953 144.508 86.8047C143.399 86.8235 142.366 86.6257 141.407 86.2119C140.449 85.7982 139.674 85.159 139.082 84.2939C138.49 83.4288 138.193 82.3423 138.193 81.0352V68.2412H135.022V64.8555H138.193V63.624C138.78 63.4873 139.463 63.286 140.214 62.9883C141 62.6829 141.731 62.3271 142.408 61.9238V64.8555Z" fill="#C7C7C7"/>
<path d="M64.6825 48.2692V14.9965H73.9105V48.2692H64.6825Z" fill="white"/>
<path d="M109.597 24.4844L101.148 25.0043C101.004 24.2822 100.694 23.6324 100.217 23.0547C99.7404 22.4626 99.1122 21.9933 98.3324 21.6467C97.567 21.2856 96.65 21.1051 95.5813 21.1051C94.1516 21.1051 92.9458 21.4084 91.9638 22.0149C90.9818 22.607 90.4908 23.4013 90.4908 24.3977C90.4908 25.192 90.8085 25.8635 91.4439 26.4123C92.0793 26.9611 93.1696 27.4015 94.7148 27.7337L100.737 28.9468C103.972 29.6111 106.383 30.6797 107.972 32.1527C109.56 33.6257 110.355 35.5609 110.355 37.9581C110.355 40.1388 109.712 42.0522 108.427 43.6985C107.156 45.3448 105.409 46.6301 103.185 47.5544C100.975 48.4642 98.4263 48.9191 95.538 48.9191C91.1334 48.9191 87.6242 48.002 85.0103 46.168C82.4109 44.3195 80.8873 41.8067 80.4396 38.6296L89.516 38.1531C89.7904 39.4961 90.4547 40.5214 91.5089 41.2291C92.5631 41.9223 93.9134 42.2688 95.5597 42.2688C97.1771 42.2688 98.4768 41.9584 99.4588 41.3374C100.455 40.702 100.961 39.886 100.975 38.8896C100.961 38.052 100.607 37.366 99.9137 36.8317C99.2205 36.2829 98.1519 35.8641 96.7077 35.5753L90.9457 34.4272C87.6964 33.7774 85.2775 32.6509 83.6889 31.048C82.1148 29.445 81.3278 27.4015 81.3278 24.9176C81.3278 22.7803 81.9054 20.9391 83.0607 19.3938C84.2305 17.8486 85.8696 16.6572 87.978 15.8196C90.1009 14.982 92.5848 14.5632 95.4297 14.5632C99.6321 14.5632 102.939 15.4514 105.351 17.2276C107.777 19.0039 109.192 21.4228 109.597 24.4844Z" fill="white"/>
<path d="M131.766 61.4397C128.776 61.4397 126.213 61.0281 124.076 60.2049C121.953 59.3962 120.263 58.2915 119.007 56.8906C117.75 55.4898 116.934 53.9157 116.559 52.1683L125.094 51.0203C125.354 51.6846 125.765 52.3055 126.328 52.8832C126.892 53.4608 127.635 53.923 128.56 54.2696C129.498 54.6306 130.639 54.8111 131.982 54.8111C133.99 54.8111 135.643 54.3201 136.943 53.3381C138.257 52.3705 138.914 50.7459 138.914 48.4642V42.3772H138.524C138.12 43.3014 137.513 44.1751 136.705 44.9982C135.896 45.8214 134.856 46.4929 133.585 47.0128C132.314 47.5327 130.798 47.7926 129.036 47.7926C126.538 47.7926 124.263 47.215 122.213 46.0597C120.176 44.8899 118.552 43.1064 117.339 40.7092C116.14 38.2975 115.541 35.2504 115.541 31.5678C115.541 27.7987 116.155 24.6505 117.382 22.1232C118.61 19.596 120.241 17.7042 122.278 16.4478C124.328 15.1914 126.574 14.5632 129.015 14.5632C130.877 14.5632 132.437 14.8809 133.694 15.5164C134.95 16.1373 135.961 16.9172 136.726 17.8558C137.506 18.7801 138.105 19.6899 138.524 20.5852H138.871V14.9965H148.034V48.5941C148.034 51.4246 147.341 53.793 145.954 55.6992C144.568 57.6055 142.647 59.0352 140.192 59.9883C137.752 60.9559 134.943 61.4397 131.766 61.4397ZM131.961 40.8608C133.448 40.8608 134.704 40.4926 135.73 39.7561C136.77 39.0051 137.564 37.9365 138.113 36.5501C138.676 35.1493 138.957 33.4741 138.957 31.5245C138.957 29.575 138.683 27.8853 138.134 26.4556C137.585 25.0115 136.791 23.8923 135.751 23.098C134.712 22.3038 133.448 21.9066 131.961 21.9066C130.444 21.9066 129.166 22.3182 128.126 23.1414C127.087 23.9501 126.3 25.0765 125.765 26.5206C125.231 27.9647 124.964 29.6327 124.964 31.5245C124.964 33.4452 125.231 35.106 125.765 36.5068C126.314 37.8931 127.101 38.969 128.126 39.7344C129.166 40.4853 130.444 40.8608 131.961 40.8608Z" fill="white"/>
<path d="M172.573 49.208C169.191 49.7321 166.173 49.4983 163.521 48.5064C160.88 47.4981 158.708 45.8327 157.003 43.5102C155.297 41.1734 154.175 38.2711 153.637 34.8033C153.113 31.421 153.31 28.351 154.227 25.593C155.144 22.835 156.683 20.5579 158.845 18.7614C161.022 16.9628 163.723 15.8136 166.948 15.3138C169.117 14.9777 171.191 15.0144 173.168 15.4239C175.158 15.817 176.96 16.5973 178.573 17.7649C180.2 18.9302 181.569 20.501 182.679 22.4772C183.787 24.4391 184.557 26.8187 184.991 29.6158L185.379 32.1203L157.615 36.4228L156.739 30.7715L175.919 27.7992C175.716 26.4863 175.25 25.3675 174.522 24.4427C173.794 23.5179 172.879 22.8486 171.778 22.4348C170.688 22.0045 169.48 21.8922 168.153 22.0978C166.768 22.3123 165.591 22.8236 164.62 23.6317C163.661 24.4233 162.965 25.4006 162.531 26.5639C162.096 27.7128 161.971 28.9377 162.158 30.2386L162.991 35.6116C163.243 37.2385 163.761 38.5977 164.544 39.6893C165.341 40.7787 166.346 41.5582 167.558 42.0279C168.771 42.4976 170.141 42.6142 171.668 42.3775C172.681 42.2205 173.587 41.9341 174.384 41.5182C175.182 41.1023 175.836 40.5625 176.347 39.8987C176.858 39.235 177.207 38.465 177.392 37.5886L185.913 36.8382C185.799 38.931 185.195 40.8366 184.102 42.555C183.022 44.2569 181.505 45.6903 179.552 46.8552C177.611 48.0035 175.284 48.7878 172.573 49.208Z" fill="white"/>
<rect x="63.2184" y="1.48486" width="9.2" height="9.2" transform="rotate(-9.15733 63.2184 1.48486)" fill="white"/>
</svg>
